<svg xmlns="http://www.w3.org/2000/svg" viewBox="0 0 800 600" role="img" aria-label="Placeholder photo of the couple">
  <defs>
    <linearGradient id="bg" x1="0" y1="0" x2="1" y2="1">
      <stop offset="0" stop-color="#f3d9cf"/>
      <stop offset="1" stop-color="#e7c4b5"/>
    </linearGradient>
  </defs>
  <rect width="800" height="600" fill="url(#bg)"/>
  <g fill="#b06a5a" opacity="0.85">
    <path d="M360 250c0-26-21-46-47-46-18 0-33 10-41 25-8-15-23-25-41-25-26 0-47 20-47 46 0 49 88 96 88 96s88-47 88-96z"/>
    <path d="M620 235c0-22-18-39-40-39-15 0-28 8-35 21-7-13-20-21-35-21-22 0-40 17-40 39 0 42 75 82 75 82s75-40 75-82z"/>
  </g>
  <text x="400" y="430" text-anchor="middle" font-family="Georgia, 'Times New Roman', serif" font-size="46" fill="#7a4a3d">Judith &amp; Sven</text>
  <text x="400" y="475" text-anchor="middle" font-family="system-ui, sans-serif" font-size="20" fill="#9a6b5d" opacity="0.9">Replace with a photo → assets/couple.jpg</text>
</svg>
